# xmcd CD database file
#
# Track frame offsets:
#	173
#	20900
#	36069
#	56855
#	77397
#	94770
#	119172
#	133815
#	147177
#	170629
#
# Disc length: 2610 seconds
#
# Revision: 0
# Processed by: cddbd v1.5.1PL2 Copyright (c) Steve Scherf et al.
# Submitted via: CDex 1.51
#
DISCID=900a300a
DTITLE=Vladimir And His Orchestra - New Sound In Latin Jazz
DYEAR=1900
DGENRE=Jazz
TTITLE0=Mambo Moderno
TTITLE1=St. John's Guaguancò
TTITLE2=Suzy's Bossa Nova
TTITLE3=Mambito
TTITLE4=Mi Son Cha
TTITLE5=Chonga
TTITLE6=Baby Boo Boogaloo
TTITLE7=Lo Que Voy A Tocar
TTITLE8=Mambo At The Cave
TTITLE9=Camelot Cha-Cha
EXTD=
EXTT0=
EXTT1=
EXTT2=
EXTT3=
EXTT4=
EXTT5=
EXTT6=
EXTT7=
EXTT8=
EXTT9=
PLAYORDER=
